# xmcd
#
# Track frame offsets:
# 150
# 16365
# 30324
# 47226
# 65397
#
# Disc length: 1222 seconds
#
# Revision: 0
# Processed by: cddbd v1.4PL0 Copyright (c) Steve Scherf et al.
# Submitted via: Audion 3.0.2 (http://www.panic.com/audion/)
#
DISCID=3604c405
DTITLE=JPAT - JPAT Live
DYEAR=1900
DGENRE=
TTITLE0=As I Am (Trenton)
TTITLE1=Frontier (Zurich)
TTITLE2=The Flesh Failures (Lincroft)
TTITLE3=Maybe I'm A Fool (Trenton)
TTITLE4=Downtown (Zurich)
EXTD=
EXTT0=
EXTT1=
EXTT2=
EXTT3=
EXTT4=
PLAYORDER=
